<svg xmlns="http://www.w3.org/2000/svg" viewBox="0 0 1200 300">
  <!-- Background gradient -->
  <defs>
    <linearGradient id="bgGradient" x1="0%" y1="0%" x2="100%" y2="0%">
      <stop offset="0%" style="stop-color:#1A237E;stop-opacity:1" />
      <stop offset="100%" style="stop-color:#311B92;stop-opacity:1" />
    </linearGradient>
    <filter id="dropShadow" x="-20%" y="-20%" width="140%" height="140%">
      <feGaussianBlur in="SourceAlpha" stdDeviation="4" />
      <feOffset dx="2" dy="2" result="offsetblur" />
      <feComponentTransfer>
        <feFuncA type="linear" slope="0.2" />
      </feComponentTransfer>
      <feMerge>
        <feMergeNode />
        <feMergeNode in="SourceGraphic" />
      </feMerge>
    </filter>
  </defs>

  <!-- Main background -->
  <rect width="1200" height="300" fill="url(#bgGradient)" rx="15" ry="15" />

  <!-- Decorative elements - SQL and text lines -->
  <g opacity="0.1" fill="#FFFFFF">
    <text x="50" y="50" font-family="monospace" font-size="14">SELECT * FROM users WHERE last_login > NOW() - INTERVAL '30 days';</text>
    <text x="80" y="80" font-family="monospace" font-size="14">JOIN orders ON users.id = orders.user_id GROUP BY users.id;</text>
    <text x="60" y="220" font-family="monospace" font-size="14">SELECT product_name, COUNT(*) FROM products LEFT JOIN categories...</text>
    <text x="40" y="250" font-family="monospace" font-size="14">SELECT AVG(price) FROM items WHERE category = 'electronics';</text>
  </g>

  <!-- Connection lines -->
  <g stroke="#7E57C2" stroke-width="2" stroke-linecap="round" opacity="0.6">
    <path d="M200,150 C300,50 400,250 600,150" fill="none" />
    <path d="M600,150 C800,50 900,250 1000,150" fill="none" />
    <circle cx="200" cy="150" r="8" fill="#7E57C2" />
    <circle cx="600" cy="150" r="8" fill="#7E57C2" />
    <circle cx="1000" cy="150" r="8" fill="#7E57C2" />
  </g>

  <!-- Project name -->
  <g filter="url(#dropShadow)">
    <text x="600" y="140" font-family="Arial, sans-serif" font-size="64" font-weight="bold" fill="#FFFFFF" text-anchor="middle">Prompt2Query</text>
    <text x="600" y="190" font-family="Arial, sans-serif" font-size="24" fill="#B39DDB" text-anchor="middle">Natural Language ➔ SQL</text>
  </g>

  <!-- Database icon -->
  <g transform="translate(720, 130) scale(0.12)">
    <ellipse cx="60" cy="-140" rx="120" ry="40" fill="#212121" stroke="#7986CB" stroke-width="10" />
    <path d="M-60,-140 L-60,20 C-60,60 180,60 180,20 L180,-140" fill="none" stroke="#7986CB" stroke-width="10" />
    <ellipse cx="60" cy="20" rx="120" ry="40" fill="#212121" stroke="#7986CB" stroke-width="10" />
    <text x="60" y="-130" font-family="monospace" font-size="50" fill="#64FFDA" text-anchor="middle">SQL</text>
  </g>
</svg>